<svg width="18" height="23" viewBox="0 0 18 23" fill="none" xmlns="http://www.w3.org/2000/svg">
<path d="M15.0341 11.7943C15.0561 10.096 15.9733 8.48899 17.4283 7.59947C16.5104 6.29587 14.9729 5.46935 13.3733 5.41958C11.6672 5.24151 10.0132 6.43475 9.1438 6.43475C8.25758 6.43475 6.919 5.43726 5.47757 5.46675C3.59873 5.52711 1.84718 6.58932 0.933086 8.22269C-1.03186 11.6056 0.433813 16.5773 2.31606 19.3117C3.25779 20.6507 4.3584 22.1464 5.79853 22.0934C7.20778 22.0352 7.73411 21.1998 9.4352 21.1998C11.1205 21.1998 11.6143 22.0934 13.0837 22.0596C14.5958 22.0352 15.5486 20.7147 16.4573 19.363C17.1339 18.4089 17.6546 17.3545 18 16.2387C16.2229 15.4913 15.0361 13.7129 15.0341 11.7943Z" fill="white"/>
<path d="M12.2587 3.62127C13.0832 2.63703 13.4894 1.37197 13.391 0.0947266C12.1314 0.226287 10.9678 0.824944 10.1321 1.77141C9.31499 2.69616 8.88974 3.93897 8.97013 5.16739C10.2303 5.1803 11.4691 4.59787 12.2587 3.62127Z" fill="white"/>
</svg>
