<svg width="1202" height="1202" viewBox="0 0 1202 1202" fill="none" xmlns="http://www.w3.org/2000/svg">
<g opacity="0.6">
<path d="M601 1201C932.371 1201 1201 932.371 1201 601C1201 269.629 932.371 1 601 1C269.629 1 1 269.629 1 601C1 932.371 269.629 1201 601 1201Z" fill="url(#paint0_radial_727_24209)" stroke="#4A3AFF" stroke-opacity="0.12" stroke-linecap="round" stroke-linejoin="round"/>
<path d="M601 1153.25C905.999 1153.25 1153.25 905.999 1153.25 601C1153.25 296.001 905.999 48.75 601 48.75C296.001 48.75 48.75 296.001 48.75 601C48.75 905.999 296.001 1153.25 601 1153.25Z" fill="url(#paint1_radial_727_24209)" stroke="#4A3AFF" stroke-opacity="0.12" stroke-linecap="round" stroke-linejoin="round"/>
<path d="M601.001 1105.48C879.618 1105.48 1105.48 879.617 1105.48 601C1105.48 322.383 879.618 96.5186 601.001 96.5186C322.384 96.5186 96.5195 322.383 96.5195 601C96.5195 879.617 322.384 1105.48 601.001 1105.48Z" fill="url(#paint2_radial_727_24209)" stroke="#4A3AFF" stroke-opacity="0.12" stroke-linecap="round" stroke-linejoin="round"/>
<path d="M601.001 1057.73C853.246 1057.73 1057.73 853.245 1057.73 601C1057.73 348.754 853.246 144.269 601.001 144.269C348.755 144.269 144.27 348.754 144.27 601C144.27 853.245 348.755 1057.73 601.001 1057.73Z" fill="url(#paint3_radial_727_24209)" stroke="#4A3AFF" stroke-opacity="0.12" stroke-linecap="round" stroke-linejoin="round"/>
<path d="M600.998 1009.96C826.862 1009.96 1009.96 826.864 1009.96 601C1009.96 375.136 826.862 192.037 600.998 192.037C375.134 192.037 192.035 375.136 192.035 601C192.035 826.864 375.134 1009.96 600.998 1009.96Z" fill="url(#paint4_radial_727_24209)" stroke="#4A3AFF" stroke-opacity="0.12" stroke-linecap="round" stroke-linejoin="round"/>
<path d="M601.002 962.212C800.494 962.212 962.214 800.492 962.214 601C962.214 401.507 800.494 239.787 601.002 239.787C401.509 239.787 239.789 401.507 239.789 601C239.789 800.492 401.509 962.212 601.002 962.212Z" fill="url(#paint5_radial_727_24209)" stroke="#4A3AFF" stroke-opacity="0.12" stroke-linecap="round" stroke-linejoin="round"/>
<path d="M600.999 914.444C774.109 914.444 914.443 774.11 914.443 601C914.443 427.889 774.109 287.556 600.999 287.556C427.888 287.556 287.555 427.889 287.555 601C287.555 774.11 427.888 914.444 600.999 914.444Z" fill="url(#paint6_radial_727_24209)" stroke="#4A3AFF" stroke-opacity="0.12" stroke-linecap="round" stroke-linejoin="round"/>
<path d="M600.999 866.694C747.737 866.694 866.693 747.738 866.693 601C866.693 454.261 747.737 335.306 600.999 335.306C454.26 335.306 335.305 454.261 335.305 601C335.305 747.738 454.26 866.694 600.999 866.694Z" fill="url(#paint7_radial_727_24209)" stroke="#4A3AFF" stroke-opacity="0.12" stroke-linecap="round" stroke-linejoin="round"/>
<path d="M601 818.926C721.357 818.926 818.926 721.357 818.926 601C818.926 480.643 721.357 383.074 601 383.074C480.643 383.074 383.074 480.643 383.074 601C383.074 721.357 480.643 818.926 601 818.926Z" fill="url(#paint8_radial_727_24209)" stroke="#4A3AFF" stroke-opacity="0.12" stroke-linecap="round" stroke-linejoin="round"/>
<path d="M601 771.175C694.985 771.175 771.175 694.985 771.175 601C771.175 507.014 694.985 430.824 601 430.824C507.014 430.824 430.824 507.014 430.824 601C430.824 694.985 507.014 771.175 601 771.175Z" fill="url(#paint9_radial_727_24209)" stroke="#4A3AFF" stroke-opacity="0.12" stroke-linecap="round" stroke-linejoin="round"/>
<path d="M601.001 723.407C668.604 723.407 723.408 668.603 723.408 601C723.408 533.396 668.604 478.593 601.001 478.593C533.397 478.593 478.594 533.396 478.594 601C478.594 668.603 533.397 723.407 601.001 723.407Z" fill="url(#paint10_radial_727_24209)" stroke="#4A3AFF" stroke-opacity="0.12" stroke-linecap="round" stroke-linejoin="round"/>
<path d="M601 675.657C642.232 675.657 675.657 642.232 675.657 601C675.657 559.769 642.232 526.344 601 526.344C559.769 526.344 526.344 559.769 526.344 601C526.344 642.232 559.769 675.657 601 675.657Z" fill="url(#paint11_radial_727_24209)" stroke="#4A3AFF" stroke-opacity="0.12" stroke-linecap="round" stroke-linejoin="round"/>
</g>
<defs>
<radialGradient id="paint0_radial_727_24209" cx="0" cy="0" r="1" gradientUnits="userSpaceOnUse" gradientTransform="translate(601 601) rotate(90) scale(600)">
<stop stop-color="#999999" stop-opacity="0"/>
<stop offset="1" stop-color="white" stop-opacity="0.11"/>
</radialGradient>
<radialGradient id="paint1_radial_727_24209" cx="0" cy="0" r="1" gradientUnits="userSpaceOnUse" gradientTransform="translate(601 601) rotate(90) scale(552.25)">
<stop stop-color="#999999" stop-opacity="0"/>
<stop offset="1" stop-color="white" stop-opacity="0.11"/>
</radialGradient>
<radialGradient id="paint2_radial_727_24209" cx="0" cy="0" r="1" gradientUnits="userSpaceOnUse" gradientTransform="translate(601.001 601) rotate(90) scale(504.481)">
<stop stop-color="#999999" stop-opacity="0"/>
<stop offset="1" stop-color="white" stop-opacity="0.11"/>
</radialGradient>
<radialGradient id="paint3_radial_727_24209" cx="0" cy="0" r="1" gradientUnits="userSpaceOnUse" gradientTransform="translate(601.001 601) rotate(90) scale(456.731)">
<stop stop-color="#999999" stop-opacity="0"/>
<stop offset="1" stop-color="white" stop-opacity="0.11"/>
</radialGradient>
<radialGradient id="paint4_radial_727_24209" cx="0" cy="0" r="1" gradientUnits="userSpaceOnUse" gradientTransform="translate(600.998 601) rotate(90) scale(408.963)">
<stop stop-color="#999999" stop-opacity="0"/>
<stop offset="1" stop-color="white" stop-opacity="0.11"/>
</radialGradient>
<radialGradient id="paint5_radial_727_24209" cx="0" cy="0" r="1" gradientUnits="userSpaceOnUse" gradientTransform="translate(601.002 601) rotate(90) scale(361.212)">
<stop stop-color="#999999" stop-opacity="0"/>
<stop offset="1" stop-color="white" stop-opacity="0.11"/>
</radialGradient>
<radialGradient id="paint6_radial_727_24209" cx="0" cy="0" r="1" gradientUnits="userSpaceOnUse" gradientTransform="translate(600.999 601) rotate(90) scale(313.444)">
<stop stop-color="#999999" stop-opacity="0"/>
<stop offset="1" stop-color="white" stop-opacity="0.11"/>
</radialGradient>
<radialGradient id="paint7_radial_727_24209" cx="0" cy="0" r="1" gradientUnits="userSpaceOnUse" gradientTransform="translate(600.999 601) rotate(90) scale(265.694)">
<stop stop-color="#999999" stop-opacity="0"/>
<stop offset="1" stop-color="white" stop-opacity="0.11"/>
</radialGradient>
<radialGradient id="paint8_radial_727_24209" cx="0" cy="0" r="1" gradientUnits="userSpaceOnUse" gradientTransform="translate(601 601) rotate(90) scale(217.926)">
<stop stop-color="#999999" stop-opacity="0"/>
<stop offset="1" stop-color="white" stop-opacity="0.11"/>
</radialGradient>
<radialGradient id="paint9_radial_727_24209" cx="0" cy="0" r="1" gradientUnits="userSpaceOnUse" gradientTransform="translate(601 601) rotate(90) scale(170.175)">
<stop stop-color="#999999" stop-opacity="0"/>
<stop offset="1" stop-color="white" stop-opacity="0.11"/>
</radialGradient>
<radialGradient id="paint10_radial_727_24209" cx="0" cy="0" r="1" gradientUnits="userSpaceOnUse" gradientTransform="translate(601.001 601) rotate(90) scale(122.407)">
<stop stop-color="#999999" stop-opacity="0"/>
<stop offset="1" stop-color="white" stop-opacity="0.11"/>
</radialGradient>
<radialGradient id="paint11_radial_727_24209" cx="0" cy="0" r="1" gradientUnits="userSpaceOnUse" gradientTransform="translate(601 601) rotate(90) scale(74.6567)">
<stop stop-color="#999999" stop-opacity="0"/>
<stop offset="1" stop-color="white" stop-opacity="0.11"/>
</radialGradient>
</defs>
</svg>
