<svg width="18" height="21" viewBox="0 0 18 21" fill="none" xmlns="http://www.w3.org/2000/svg">
<g filter="url(#filter0_ii_828_25644)">
<path d="M0.360979 0.405285C0.134101 0.646368 -3.33103e-07 1.02052 -3.33103e-07 1.50503V18.8161C-3.33103e-07 19.3014 0.134101 19.6747 0.360979 19.9158L0.418673 19.9722L10.0778 10.2748V10.1606V10.0463L0.418673 0.348145L0.360979 0.405285Z" fill="url(#paint0_linear_828_25644)"/>
<path d="M13.2934 13.5082L10.0742 10.2747V10.1605V10.0462L13.2942 6.81348L13.3667 6.85496L17.1815 9.03098C18.2707 9.65247 18.2707 10.6692 17.1815 11.2915L13.3667 13.4675L13.2934 13.5082Z" fill="url(#paint1_linear_828_25644)"/>
<g filter="url(#filter1_i_828_25644)">
<path d="M13.3647 13.4669L10.0715 10.1606L0.355469 19.9159C0.714109 20.2979 1.30742 20.3449 1.97559 19.9644L13.3647 13.4669Z" fill="url(#paint2_linear_828_25644)"/>
</g>
<path d="M13.3647 6.85403L1.97559 0.357297C1.30742 -0.0238963 0.714109 0.0238509 0.355469 0.405827L10.0723 10.1611L13.3647 6.85403Z" fill="url(#paint3_linear_828_25644)"/>
</g>
<defs>
<filter id="filter0_ii_828_25644" x="0" y="0.0942383" width="18" height="20.1328" filterUnits="userSpaceOnUse" color-interpolation-filters="sRGB">
<feFlood flood-opacity="0" result="BackgroundImageFix"/>
<feBlend mode="normal" in="SourceGraphic" in2="BackgroundImageFix" result="shape"/>
<feColorMatrix in="SourceAlpha" type="matrix" values="0 0 0 0 0 0 0 0 0 0 0 0 0 0 0 0 0 0 127 0" result="hardAlpha"/>
<feOffset dy="-0.795"/>
<feComposite in2="hardAlpha" operator="arithmetic" k2="-1" k3="1"/>
<feColorMatrix type="matrix" values="0 0 0 0 0 0 0 0 0 0 0 0 0 0 0 0 0 0 0.12 0"/>
<feBlend mode="normal" in2="shape" result="effect1_innerShadow_828_25644"/>
<feColorMatrix in="SourceAlpha" type="matrix" values="0 0 0 0 0 0 0 0 0 0 0 0 0 0 0 0 0 0 127 0" result="hardAlpha"/>
<feOffset dy="0.795"/>
<feComposite in2="hardAlpha" operator="arithmetic" k2="-1" k3="1"/>
<feColorMatrix type="matrix" values="0 0 0 0 1 0 0 0 0 1 0 0 0 0 1 0 0 0 0.25 0"/>
<feBlend mode="normal" in2="effect1_innerShadow_828_25644" result="effect2_innerShadow_828_25644"/>
</filter>
<filter id="filter1_i_828_25644" x="0.355469" y="10.1606" width="13.0078" height="10.0664" filterUnits="userSpaceOnUse" color-interpolation-filters="sRGB">
<feFlood flood-opacity="0" result="BackgroundImageFix"/>
<feBlend mode="normal" in="SourceGraphic" in2="BackgroundImageFix" result="shape"/>
<feColorMatrix in="SourceAlpha" type="matrix" values="0 0 0 0 0 0 0 0 0 0 0 0 0 0 0 0 0 0 127 0" result="hardAlpha"/>
<feOffset dy="-0.795"/>
<feComposite in2="hardAlpha" operator="arithmetic" k2="-1" k3="1"/>
<feColorMatrix type="matrix" values="0 0 0 0 0 0 0 0 0 0 0 0 0 0 0 0 0 0 0.08 0"/>
<feBlend mode="normal" in2="shape" result="effect1_innerShadow_828_25644"/>
</filter>
<linearGradient id="paint0_linear_828_25644" x1="9.22157" y1="1.32187" x2="-3.91425" y2="14.4059" gradientUnits="userSpaceOnUse">
<stop stop-color="#00A0FF"/>
<stop offset="0.0066" stop-color="#00A1FF"/>
<stop offset="0.2601" stop-color="#00BEFF"/>
<stop offset="0.5122" stop-color="#00D2FF"/>
<stop offset="0.7604" stop-color="#00DFFF"/>
<stop offset="1" stop-color="#00E3FF"/>
</linearGradient>
<linearGradient id="paint1_linear_828_25644" x1="18.5993" y1="10.1605" x2="-0.265055" y2="10.1605" gradientUnits="userSpaceOnUse">
<stop stop-color="#FFE000"/>
<stop offset="0.4087" stop-color="#FFBD00"/>
<stop offset="0.7754" stop-color="#FFA500"/>
<stop offset="1" stop-color="#FF9C00"/>
</linearGradient>
<linearGradient id="paint2_linear_828_25644" x1="11.5763" y1="11.9562" x2="-6.23752" y2="29.6997" gradientUnits="userSpaceOnUse">
<stop stop-color="#FF3A44"/>
<stop offset="1" stop-color="#C31162"/>
</linearGradient>
<linearGradient id="paint3_linear_828_25644" x1="-2.09155" y1="-5.35685" x2="5.86281" y2="2.56614" gradientUnits="userSpaceOnUse">
<stop stop-color="#32A071"/>
<stop offset="0.0685" stop-color="#2DA771"/>
<stop offset="0.4762" stop-color="#15CF74"/>
<stop offset="0.8009" stop-color="#06E775"/>
<stop offset="1" stop-color="#00F076"/>
</linearGradient>
</defs>
</svg>
